<svg version="1.2" xmlns="http://www.w3.org/2000/svg" viewBox="0 0 131 119" width="131" height="119">
	<title>latest?cb=20180222104108-svg</title>
	<defs>
		<clipPath clipPathUnits="userSpaceOnUse" id="cp1">
			<path d="m-12.86-8.39v176.94h499.99v-176.94z"/>
		</clipPath>
	</defs>
	<style>
		.s0 { fill: #ffa930 } 
	</style>
	<g id="g10">
		<g id="g12">
			<g id="g14">
				<g id="Clip-Path: g16" clip-path="url(#cp1)">
					<g id="g16">
						<path id="path24" fill-rule="evenodd" class="s0" d="m63.5 31.9c7.2 0 14.1 3.2 19.1 8.2 0-2.4 1.6-4.2 3.9-4.2h0.5c3.6 0 4.3 3.3 4.3 4.4v37.5c-0.2 2.5 2.5 3.8 4.1 2.2 6-6.2 13.2-31.9-3.8-46.7-15.8-13.9-37-11.6-48.3-3.8-12.1 8.2-19.7 26.6-12.3 43.8 8.2 18.8 31.5 24.4 45.3 18.8 7-2.8 10.2 6.7 3 9.8-11 4.6-41.7 4.2-56-20.6-9.6-16.7-9.1-46.2 16.5-61.4 19.6-11.7 45.5-8.5 61.1 7.8 16.3 17 15.3 48.9-0.6 61.3-7.2 5.6-17.9 0.1-17.8-8.1l-0.1-2.6c-5 4.9-11.7 7.8-18.9 7.8-14.4 0-27-12.6-27-27 0-14.5 12.6-27.2 27-27.2zm18 26.2c-0.5-10.5-8.3-16.8-17.7-16.8h-0.4c-10.9 0-16.9 8.5-16.9 18.2 0 10.9 7.3 17.8 16.9 17.8 10.6 0 17.7-7.8 18.2-17.1z"/>
					</g>
				</g>
			</g>
		</g>
	</g>
</svg>