<svg width="1420" height="294" xmlns="http://www.w3.org/2000/svg" xmlns:xlink="http://www.w3.org/1999/xlink" overflow="hidden"><defs><clipPath id="clip0"><rect x="131" y="154" width="1420" height="294"/></clipPath><clipPath id="clip1"><rect x="130" y="154" width="633" height="235"/></clipPath><clipPath id="clip2"><rect x="130" y="154" width="633" height="235"/></clipPath><clipPath id="clip3"><rect x="130" y="154" width="633" height="235"/></clipPath></defs><g clip-path="url(#clip0)" transform="translate(-131 -154)"><g clip-path="url(#clip1)"><g clip-path="url(#clip2)"><g clip-path="url(#clip3)"><path d="M122.124 69.8584C134.422 69.8584 146.207 75.3241 154.747 83.8643 154.747 79.765 157.48 76.6905 161.409 76.6905L162.263 76.6905C168.412 76.6905 169.607 82.327 169.607 84.2059L169.607 148.257C169.266 152.527 173.877 154.747 176.61 152.015 186.858 141.425 199.156 97.5285 170.12 72.2497 143.133 48.508 106.923 52.4365 87.6219 65.7591 66.9548 79.765 53.9737 111.193 66.6132 140.571 80.619 172.682 120.416 182.247 143.987 172.682 155.943 167.899 161.409 184.126 149.111 189.421 130.323 197.277 77.8862 196.594 53.4613 154.235 37.0643 125.711 37.9183 75.3241 81.6438 49.3621 115.121 29.3781 159.359 34.8438 186.004 62.6847 213.845 91.7212 212.137 146.207 184.98 167.387 172.682 176.952 154.406 167.558 154.577 153.552L154.406 149.111C145.866 157.48 134.422 162.434 122.124 162.434 97.5285 162.434 76.0073 140.912 76.0073 116.317 76.0073 91.5504 97.5285 69.8584 122.124 69.8584ZM152.869 114.609C152.015 96.6745 138.692 85.9139 122.637 85.9139L121.953 85.9139C103.336 85.9139 93.0876 100.432 93.0876 117 93.0876 135.618 105.556 147.403 121.953 147.403 140.058 147.403 152.185 134.08 153.039 118.196Z" fill="#2E75B8" fill-rule="evenodd" transform="matrix(1.00117 0 0 1 131 154)"/><path d="M237.416 159.53 237.416 67.2964C237.416 63.8803 238.441 61.0335 240.491 58.7562 242.655 56.365 245.444 55.1694 248.86 55.1694 252.276 55.1694 255.065 56.365 257.229 58.7562 259.393 61.1475 260.475 63.9942 260.475 67.2964L260.475 159.53C260.475 162.946 259.393 165.85 257.229 168.241 255.18 170.518 252.39 171.657 248.86 171.657 245.558 171.657 242.826 170.518 240.661 168.241 238.497 165.964 237.416 163.06 237.416 159.53ZM270.552 159.53 270.552 102.14C270.552 98.7241 271.633 95.8774 273.797 93.6 275.961 91.3227 278.75 90.184 282.167 90.184 285.583 90.184 288.372 91.3227 290.536 93.6 292.7 95.8774 293.781 98.7241 293.781 102.14L293.781 159.53C293.781 162.946 292.7 165.85 290.536 168.241 288.486 170.518 285.697 171.657 282.167 171.657 278.865 171.657 276.132 170.518 273.968 168.241 271.691 165.964 270.552 163.06 270.552 159.53ZM282.167 55.1694C286.039 55.1694 289.34 56.5358 292.073 59.2686 294.692 61.8876 296.002 65.1899 296.002 69.1752 296.002 73.1606 294.692 76.4629 292.073 79.0818 289.34 81.8146 286.039 83.1811 282.167 83.1811 278.294 83.1811 275.049 81.8146 272.431 79.0818 269.698 76.4629 268.332 73.1606 268.332 69.1752 268.332 65.3036 269.698 62.0015 272.431 59.2686 275.164 56.5358 278.409 55.1694 282.167 55.1694ZM301.98 159.53 301.98 102.14C301.98 98.7241 303.004 95.8774 305.054 93.6 307.218 91.3227 310.064 90.184 313.594 90.184 316.442 90.184 318.946 90.9811 321.11 92.5752 322.932 93.8277 324.299 95.4789 325.209 97.5285 327.031 94.6817 329.706 92.5183 333.237 91.038 336.653 89.4439 340.581 88.6468 345.022 88.6468 348.894 88.6468 352.823 89.4439 356.807 91.038 360.792 92.5183 364.038 94.9096 366.543 98.2117 370.415 95.2512 373.603 93.1445 376.108 91.892 380.435 89.7284 384.763 88.6468 389.089 88.6468 397.629 88.6468 404.405 90.8103 409.415 95.1373 415.108 100.034 417.955 107.037 417.955 116.146L417.955 159.53C417.955 162.946 416.816 165.85 414.539 168.241 412.489 170.518 409.756 171.657 406.34 171.657 402.924 171.657 400.135 170.518 397.971 168.241 395.807 165.964 394.726 163.06 394.726 159.53L394.726 122.466C394.726 118.594 393.701 115.292 391.651 112.559 389.487 109.826 386.642 108.46 383.111 108.46 379.468 108.46 376.621 109.826 374.571 112.559 372.521 115.178 371.496 118.48 371.496 122.466L371.496 159.53C371.496 162.946 370.415 165.85 368.251 168.241 366.202 170.518 363.412 171.657 359.882 171.657 356.58 171.657 353.847 170.518 351.683 168.241 349.407 165.964 348.267 163.06 348.267 159.53L348.267 122.466C348.267 118.594 347.242 115.292 345.193 112.559 343.143 109.826 340.354 108.46 336.823 108.46 333.066 108.46 330.162 109.826 328.113 112.559 326.177 115.178 325.209 118.48 325.209 122.466L325.209 159.53C325.209 162.946 324.128 165.85 321.964 168.241 319.8 170.518 317.01 171.657 313.594 171.657 310.178 171.657 307.389 170.518 305.225 168.241 303.061 165.964 301.98 163.06 301.98 159.53ZM424.616 191.983 424.616 102.14C424.616 98.7241 425.641 95.8774 427.691 93.6 429.855 91.3227 432.7 90.184 436.231 90.184 438.622 90.184 440.786 90.9241 442.721 92.4044 444.657 93.8848 446.081 95.5928 446.991 97.5285 451.888 91.6073 458.55 88.6468 466.975 88.6468 476.996 88.6468 485.478 92.746 492.425 100.945 499.257 109.029 502.673 118.993 502.673 130.835 502.673 142.677 499.257 152.755 492.425 161.067 485.478 169.152 476.996 173.194 466.975 173.194 462.307 173.194 458.55 172.625 455.702 171.486 452.97 170.347 450.293 168.753 447.675 166.704L447.675 191.983C447.675 195.399 446.593 198.302 444.429 200.694 442.38 202.97 439.647 204.11 436.231 204.11 432.815 204.11 430.026 202.97 427.861 200.694 425.697 198.417 424.616 195.513 424.616 191.983ZM479.615 130.835C479.615 125.142 478.248 120.53 475.516 117 472.555 113.015 468.627 111.022 463.73 111.022 458.72 111.022 454.792 112.901 451.945 116.658 449.097 120.416 447.675 125.142 447.675 130.835 447.675 136.528 449.097 141.254 451.945 145.012 454.792 148.883 458.72 150.819 463.73 150.819 468.627 150.819 472.441 148.883 475.174 145.012 478.134 141.254 479.615 136.528 479.615 130.835ZM575.948 138.521 534.101 138.521C534.101 141.71 535.353 144.499 537.859 146.891 541.047 150.079 546.001 151.673 552.718 151.673 556.932 151.673 561.6 150.421 566.724 147.915 571.963 145.41 575.208 144.158 576.46 144.158 579.193 144.158 581.47 145.126 583.292 147.061 585.115 148.769 586.025 151.161 586.025 154.235 586.025 159.701 582.267 164.256 574.752 167.899 567.351 171.43 558.982 173.194 549.644 173.194 537.573 173.194 527.781 169.152 520.266 161.067 512.865 152.983 509.164 142.905 509.164 130.835 509.164 119.22 512.978 109.314 520.607 101.115 528.237 92.8029 537.915 88.6468 549.644 88.6468 560.69 88.6468 569.799 92.6891 576.972 100.774 583.805 108.517 587.221 117.683 587.221 128.273 587.221 132.145 586.367 134.82 584.659 136.301 582.836 137.781 579.932 138.521 575.948 138.521ZM534.101 122.466 564.162 122.466C564.162 119.277 562.796 116.26 560.063 113.413 556.989 110.111 553.345 108.46 549.132 108.46 544.918 108.46 541.331 109.997 538.371 113.072 535.524 116.26 534.101 119.391 534.101 122.466Z" fill="#0071C2" transform="matrix(1.00117 0 0 1 131 154)"/></g></g></g><path d="M762 154 762 404.807" stroke="#0071C2" stroke-width="13.75" stroke-miterlimit="8" fill="none" fill-rule="evenodd"/><text fill="#0071C2" font-family="VAG World,VAG World_MSFontService,sans-serif" font-weight="700" font-size="128" transform="matrix(1 0 0 1 831.981 330)">Помощь</text></g></svg>